<svg width="822" height="349" viewBox="0 0 822 349" fill="none" xmlns="http://www.w3.org/2000/svg">
  <path d="M336.669 26.2264V342H9.84467L119.922 25.3832L177.476 278.826L181.444 296.297L190.372 280.764L336.669 26.2264ZM513.804 221.404L508.355 225.777L512.717 231.235L601.243 342L434.838 342L522.602 86.8916L681.455 86.8916L513.804 221.404ZM812.348 269.1C802.261 310.921 764.561 342 719.601 342C684.303 342 653.476 322.85 636.969 294.352L636.968 294.351C631.293 284.559 627.532 274.033 625.641 263.275C619.935 230.832 631.228 196.346 658.277 173.667C696.834 141.34 753.471 144.695 787.983 180.214L696.715 256.736L681.968 269.1H701.212H812.348ZM462.915 130.349C462.915 154.345 443.445 173.807 419.416 173.807C395.388 173.807 375.918 154.345 375.918 130.349C375.918 106.354 395.388 86.8916 419.416 86.8916C443.445 86.8916 462.915 106.354 462.915 130.349Z" stroke="black" stroke-width="14"/>
</svg>
